<?xml version="1.0" standalone="no"?>
<!DOCTYPE svg PUBLIC "-//W3C//DTD SVG 20010904//EN"
 "http://www.w3.org/TR/2001/REC-SVG-20010904/DTD/svg10.dtd">
<svg version="1.0" xmlns="http://www.w3.org/2000/svg"
 width="1024.000000pt" height="1024.000000pt" viewBox="0 0 1024.000000 1024.000000"
 preserveAspectRatio="xMidYMid meet">
<metadata>
Created by potrace 1.14, written by Peter Selinger 2001-2017
</metadata>
<g transform="translate(0.000000,1024.000000) scale(0.100000,-0.100000)"
fill="#000000" stroke="none">
<path d="M3705 8460 c-65 -17 -183 -64 -195 -79 -3 -3 -18 -12 -33 -20 -24
-13 -129 -111 -163 -154 -6 -7 -75 -121 -154 -253 -78 -131 -163 -273 -188
-314 -25 -41 -53 -88 -62 -105 -9 -16 -43 -72 -74 -123 -31 -51 -56 -95 -56
-98 0 -3 -5 -10 -10 -17 -14 -16 -90 -144 -90 -152 0 -3 -5 -11 -11 -18 -17
-20 -239 -398 -239 -408 0 -5 -3 -9 -8 -9 -4 0 -23 -28 -42 -62 -19 -35 -39
-71 -45 -81 -38 -67 -451 -757 -466 -779 -10 -15 -19 -30 -19 -33 0 -3 -12
-24 -27 -48 -15 -23 -32 -51 -39 -62 -6 -11 -88 -150 -182 -309 -95 -158 -172
-292 -172 -297 0 -5 -4 -9 -8 -9 -5 0 -16 -15 -25 -32 -9 -18 -30 -55 -47 -83
-17 -27 -40 -68 -51 -90 -12 -22 -24 -42 -28 -45 -3 -3 -12 -16 -19 -29 -8
-13 -22 -38 -32 -56 -10 -18 -41 -70 -69 -115 -28 -45 -51 -83 -51 -86 0 -2
-43 -74 -95 -160 -52 -86 -95 -158 -95 -159 0 -2 -23 -41 -51 -87 -29 -46 -63
-103 -77 -128 -14 -25 -33 -57 -43 -72 -11 -14 -19 -29 -19 -33 0 -3 -13 -26
-30 -50 -16 -24 -30 -48 -30 -54 0 -6 -4 -11 -10 -11 -5 0 -10 -4 -10 -9 0 -5
-21 -45 -46 -88 -26 -43 -55 -91 -64 -108 -14 -24 -128 -216 -169 -285 -309
-512 -321 -534 -347 -647 -13 -57 -12 -225 3 -282 70 -279 306 -486 591 -516
76 -9 2516 -9 2652 0 52 3 113 7 135 10 72 8 120 15 145 20 14 3 45 8 70 11
25 3 48 8 51 10 3 2 21 6 40 9 46 9 64 13 64 15 0 1 7 3 15 5 37 7 191 55 202
62 7 4 16 8 21 9 4 1 8 2 10 4 1 1 9 3 18 5 28 5 221 97 288 137 34 21 65 38
67 38 2 0 32 19 65 43 33 23 70 49 82 56 12 8 47 35 77 60 30 26 63 53 74 61
69 55 256 255 326 350 14 18 30 38 35 44 22 23 136 194 155 231 5 11 40 70 77
130 38 61 77 127 88 148 11 20 23 37 27 37 5 0 8 4 8 9 0 6 26 53 58 106 106
177 113 190 119 208 3 9 9 17 14 17 5 0 9 5 9 11 0 6 13 30 30 54 16 24 30 46
30 49 0 6 83 146 112 188 10 15 18 32 18 38 0 5 4 10 9 10 5 0 12 9 16 19 3
11 47 88 98 173 51 84 96 160 100 168 4 8 15 27 25 42 18 29 84 137 92 153 3
6 21 36 40 68 19 32 40 66 45 76 42 72 102 172 122 202 12 19 23 40 23 47 0 7
5 12 10 12 6 0 10 4 10 9 0 9 81 146 98 166 4 6 8 12 8 15 0 5 12 25 51 88 10
15 18 29 18 32 0 3 12 23 26 45 14 22 39 63 54 90 16 28 32 52 35 55 6 6 31
49 62 108 12 23 26 42 30 42 4 0 8 5 8 11 0 6 30 61 68 122 37 62 69 116 72
122 3 6 23 38 44 73 36 57 56 76 56 53 0 -10 252 -438 269 -458 6 -7 11 -15
11 -18 0 -4 34 -64 76 -133 43 -70 85 -141 95 -159 17 -31 51 -88 76 -128 22
-36 316 -530 327 -550 6 -11 24 -39 39 -62 15 -24 27 -44 27 -46 0 -2 77 -131
170 -287 94 -157 170 -288 170 -292 0 -4 5 -8 10 -8 6 0 10 -4 10 -10 0 -5 41
-79 91 -162 51 -84 100 -167 110 -185 10 -17 29 -50 43 -72 15 -22 26 -45 26
-51 0 -5 4 -10 9 -10 5 0 12 -11 15 -25 4 -14 11 -25 16 -25 6 0 10 -4 10 -9
0 -5 58 -106 129 -225 96 -160 125 -216 113 -217 -9 0 -569 -1 -1244 -1 -674
0 -1230 -3 -1236 -7 -8 -5 -200 -319 -211 -346 -2 -5 -10 -16 -18 -23 -7 -8
-11 -17 -8 -22 3 -5 1 -10 -3 -12 -10 -4 -132 -206 -132 -218 0 -6 -4 -10 -8
-10 -4 0 -18 -19 -30 -42 -12 -24 -26 -50 -32 -58 -46 -69 -180 -303 -176
-307 7 -8 3825 -6 3886 2 79 10 188 47 262 88 121 68 268 236 293 337 1 3 9
30 19 60 9 30 19 96 22 147 3 77 0 112 -20 208 -5 26 -51 132 -63 146 -7 8
-13 21 -13 27 0 7 -4 12 -10 12 -5 0 -10 5 -10 10 0 6 -16 36 -35 66 -19 30
-35 57 -35 60 0 3 -13 25 -30 49 -16 24 -30 46 -30 48 0 4 -209 356 -230 387
-6 8 -16 26 -22 40 -7 14 -15 27 -19 30 -7 6 -36 59 -45 83 -3 9 -10 17 -15
17 -5 0 -9 5 -9 10 0 6 -17 39 -38 73 -20 34 -43 71 -49 82 -7 11 -90 150
-185 310 -95 159 -177 297 -183 306 -23 40 -146 246 -242 406 -57 95 -103 175
-103 178 0 3 -5 11 -11 18 -9 10 -62 98 -129 212 -18 31 -87 148 -105 177 -5
9 -21 37 -34 62 -14 25 -28 46 -32 46 -4 0 -10 11 -13 25 -4 14 -11 25 -16 25
-6 0 -10 6 -10 13 0 7 -16 36 -35 66 -19 29 -35 54 -35 56 0 2 -116 197 -161
270 -10 17 -23 39 -29 50 -5 11 -20 36 -32 57 -28 44 -88 145 -103 173 -6 11
-23 38 -37 60 -14 22 -44 74 -68 115 -24 41 -50 83 -58 93 -8 9 -11 17 -6 17
5 0 4 4 -2 8 -6 4 -20 22 -30 41 -10 18 -23 41 -29 50 -16 25 -149 249 -160
269 -163 286 -248 385 -391 460 -45 23 -92 44 -105 46 -13 3 -24 5 -24 6 0 1
-7 3 -15 5 -8 2 -26 7 -40 11 -52 14 -230 12 -298 -3 -98 -23 -234 -87 -288
-139 -7 -6 -25 -21 -41 -35 -43 -36 -102 -119 -184 -259 -40 -69 -76 -126 -81
-128 -4 -2 -8 -8 -8 -14 0 -10 -80 -149 -90 -158 -4 -3 -13 -20 -21 -37 -8
-18 -17 -33 -21 -33 -5 0 -8 -7 -8 -15 0 -8 -4 -15 -10 -15 -5 0 -10 -5 -10
-10 0 -6 -41 -79 -91 -163 -107 -178 -118 -195 -184 -310 -27 -48 -54 -87 -60
-87 -8 0 -103 153 -138 220 -4 8 -15 27 -25 42 -9 14 -35 57 -56 95 -22 37
-43 70 -48 71 -4 2 -8 8 -8 14 0 9 -34 69 -87 153 -7 11 -22 36 -33 55 -11 19
-31 53 -45 75 -14 22 -28 47 -33 55 -4 8 -22 40 -40 70 -36 60 -42 70 -89 147
-18 30 -33 55 -33 57 0 3 -91 156 -110 186 -15 22 -209 349 -235 395 -13 22
-53 89 -89 149 -36 60 -66 112 -66 117 0 5 -4 9 -10 9 -5 0 -10 5 -10 11 0 16
-127 224 -169 279 -45 57 -119 128 -143 136 -10 3 -18 9 -18 14 0 11 -136 77
-190 91 -25 7 -52 14 -60 17 -8 2 -64 5 -125 7 -80 2 -129 -3 -180 -15z m185
-1442 c8 -13 19 -32 26 -43 28 -51 58 -101 143 -242 50 -83 91 -156 91 -160 0
-5 8 -18 18 -29 18 -21 27 -36 69 -113 14 -25 41 -69 59 -98 19 -28 34 -54 34
-58 0 -3 14 -26 30 -50 17 -24 30 -47 30 -50 0 -4 14 -27 30 -52 17 -24 30
-45 30 -47 0 -2 25 -46 56 -97 31 -52 65 -107 74 -124 55 -96 94 -161 100
-165 3 -3 19 -29 34 -59 15 -30 36 -66 46 -80 15 -22 261 -435 295 -496 6 -11
22 -38 35 -60 29 -46 28 -56 -9 -110 -15 -22 -30 -47 -34 -55 -4 -8 -13 -24
-20 -35 -7 -11 -49 -83 -95 -160 -46 -77 -88 -147 -93 -155 -68 -114 -157
-265 -177 -300 -14 -25 -30 -48 -36 -52 -6 -5 -7 -8 -1 -8 6 0 6 -3 -1 -8 -6
-4 -24 -32 -41 -62 -16 -30 -63 -109 -103 -175 -40 -66 -82 -136 -93 -155 -44
-80 -143 -238 -171 -276 -17 -23 -38 -52 -46 -64 -36 -53 -164 -189 -236 -251
-75 -64 -229 -156 -300 -179 -21 -7 -44 -17 -51 -22 -7 -5 -17 -7 -22 -4 -5 4
-12 2 -15 -3 -4 -5 -32 -15 -64 -22 -31 -7 -59 -13 -62 -14 -3 -1 -21 -5 -40
-8 -19 -4 -48 -10 -65 -14 -16 -4 -461 -8 -989 -10 l-958 -4 18 28 c24 36 33
51 90 148 26 44 53 88 62 98 8 9 12 17 8 17 -4 0 6 19 22 43 16 23 89 143 162
267 73 124 150 253 171 287 22 34 39 67 39 73 0 5 5 10 10 10 6 0 10 5 10 10
0 6 29 56 63 113 35 56 66 107 68 112 7 17 239 408 260 437 10 15 19 30 19 33
0 3 22 40 48 83 27 42 51 84 55 92 9 19 26 46 54 86 12 17 19 34 16 38 -4 3
-1 6 5 6 7 0 12 6 12 14 0 8 3 16 8 18 4 2 18 23 31 48 13 25 38 68 56 95 18
28 41 66 51 85 11 19 27 46 35 60 52 81 199 334 199 341 0 5 5 9 10 9 6 0 10
4 10 9 0 10 371 636 395 666 8 10 15 22 15 26 0 4 22 43 48 86 26 43 51 85 55
93 4 8 11 22 17 30 24 37 130 212 130 215 0 3 79 136 110 185 5 8 24 40 42 70
17 30 40 69 50 85 10 17 23 40 30 53 6 12 14 22 17 22 3 0 13 -10 21 -22z"/>
</g>
</svg>
